#!OML:ASF F:\VICON\USERDATA\INSTALL\rory3\rory3.ASF
:FULLY-SPECIFIED
:DEGREES
4022
root 2.18424 17.748 -8.25164 5.43883 -22.8791 -0.233107
lowerback 4.098 3.26409 1.55793
upperback 0.519508 4.46182 2.69958
thorax -1.85569 2.22003 1.64775
lowerneck -22.828 -2.89434 -5.61807
upperneck 27.4834 -5.41375 10.1715
head 13.58 -1.56654 4.0047
rclavicle -2.8625e-014 1.66979e-014
rhumerus -1.52564 15.1941 -75.8244
rradius 120.726
rwrist -55.3206
rhand 38.1587 22.0666
rfingers 7.12502
rthumb 60.8521 9.21308
lclavicle -2.8625e-014 1.66979e-014
lhumerus -15.645 -11.2067 82.3031
lradius 122.43
lwrist 55.6889
lhand 23.8519 18.7343
lfingers 7.12502
lthumb 48.105 -1039.1
rfemur -11.655 -9.30619 24.5718
rtibia 31.6257
rfoot -26.0561 -9.56602
rtoes 8.303
lfemur -23.2408 -3.71313 -12.0473
ltibia 24.4265
lfoot -7.80026 16.5598
ltoes -6.42622
4023
root 2.17035 17.7459 -8.27016 5.40256 -23.0754 -0.191736
lowerback 4.18768 3.23018 1.52846
upperback 0.512549 4.41898 2.73314
thorax -1.91708 2.19862 1.6952
lowerneck -22.8599 -2.87314 -5.54018
upperneck 27.1835 -5.39187 10.2008
head 13.4578 -1.54746 3.99416
rclavicle 5.52621e-014 2.62396e-014
rhumerus -3.2064 15.7287 -76.0745
rradius 119.781
rwrist -54.3874
rhand 38.1597 21.73
rfingers 7.12502
rthumb 60.8529 8.87742
lclavicle 5.52621e-014 2.62396e-014
lhumerus -17.8573 -11.4321 83.0862
lradius 121.731
lwrist 55.0136
lhand 23.4881 19.1052
lfingers 7.12502
lthumb 47.7695 -1038.58
rfemur -11.7145 -9.23164 24.5729
rtibia 31.6709
rfoot -25.9411 -9.45565
rtoes 8.50971
lfemur -23.2106 -3.68074 -11.9963
ltibia 24.5257
lfoot -7.97892 16.3969
ltoes -6.75842
4024
root 2.15686 17.7415 -8.28679 5.38554 -23.3184 -0.239637
lowerback 4.37041 3.16812 1.47162
upperback 0.433401 4.34491 2.86167
thorax -2.11357 2.16179 1.84931
lowerneck -22.8013 -2.88944 -5.67446
upperneck 26.8952 -5.34272 10.2161
head 13.3243 -1.54371 4.02009
rclavicle 1.09332e-014 3.81667e-014
rhumerus -4.71234 16.4608 -76.2451
rradius 118.601
rwrist -53.4253
rhand 37.354 20.891
rfingers 7.12502
rthumb 60.168 7.2882
lclavicle 1.09332e-014 3.81667e-014
lhumerus -20.0421 -11.4002 83.8967
lradius 120.828
lwrist 54.2451
lhand 22.7228 19.5336
lfingers 7.12502
lthumb 47.0626 -1037.83
rfemur -11.767 -8.88667 24.6591
rtibia 31.7592
rfoot -25.9677 -9.35898
rtoes 9.26891
lfemur -23.1614 -3.53806 -11.86
ltibia 24.5809
lfoot -8.21356 16.0767
ltoes -6.78858
4025
root 2.14396 17.7368 -8.30038 5.31566 -23.5784 -0.165427
lowerback 4.59074 3.15737 1.3455
upperback 0.287435 4.33819 2.91265
thorax -2.40045 2.15919 1.9542
lowerneck -22.7582 -2.85365 -5.62564
upperneck 26.7587 -5.29144 10.1938
head 13.2511 -1.52223 4.00584
rclavicle -1.61016e-014 -1.74931e-014
rhumerus -6.48393 17.0784 -76.4258
rradius 117.349
rwrist -52.431
rhand 35.7813 20.0108
rfingers 7.12502
rthumb 58.8157 5.04457
lclavicle -1.61016e-014 -1.74931e-014
lhumerus -22.0882 -11.3306 84.6371
lradius 119.663
lwrist 53.417
lhand 22.3885 19.8333
lfingers 7.12502
lthumb 46.7533 -1037.39
rfemur -11.825 -8.42414 24.6167
rtibia 31.9162
rfoot -25.9631 -9.39825
rtoes 8.91222
lfemur -23.0583 -3.53341 -11.8265
ltibia 24.5628
lfoot -8.4998 15.7293
ltoes -6.74367
4026
root 2.13125 17.7311 -8.31783 5.28296 -23.8569 -0.0733376
lowerback 4.54062 3.25091 1.39774
upperback 0.318583 4.46038 2.81351
thorax -2.33153 2.2192 1.81927
lowerneck -22.8927 -2.91006 -5.55696
upperneck 26.4911 -5.44439 10.4295
head 13.1934 -1.54978 4.05047
rclavicle -4.53229e-014 -9.54166e-015
rhumerus -7.97385 17.2986 -76.5907
rradius 115.923
rwrist -51.2396
rhand 33.4611 18.9315
rfingers 7.12502
rthumb 56.7888 2.17086
lclavicle -4.53229e-014 -9.54166e-015
lhumerus -23.3592 -11.4912 85.0089
lradius 118.18
lwrist 52.6383
lhand 21.7402 20.0222
lfingers 7.12502
lthumb 46.1526 -1036.95
rfemur -11.9505 -8.09229 24.5664
rtibia 32.0919
rfoot -25.8899 -9.31995
rtoes 8.73187
lfemur -22.9825 -3.69723 -11.7674
ltibia 24.5168
lfoot -8.82258 15.3805
ltoes -7.31296
4027
root 2.12043 17.7271 -8.3329 5.26855 -24.168 0.00312559
lowerback 4.30818 3.31555 1.50983
upperback 0.481308 4.53646 2.73289
thorax -2.02042 2.2567 1.68971
lowerneck -23.2188 -2.97668 -5.57381
upperneck 26.25 -5.57865 10.6816
head 13.1879 -1.5704 4.12209
rclavicle -3.63776e-014 3.49861e-014
rhumerus -8.85047 17.5717 -76.7615
rradius 114.178
rwrist -49.864
rhand 30.5733 17.2396
rfingers 7.12502
rthumb 54.2216 -1.44751
lclavicle -3.63776e-014 3.49861e-014
lhumerus -24.2003 -11.397 85.1817
lradius 116.433
lwrist 52.0468
lhand 20.6396 20.2977
lfingers 7.12502
lthumb 45.1305 -1036.25
rfemur -12.0873 -7.93598 24.5077
rtibia 32.2639
rfoot -25.7878 -9.04381
rtoes 8.95492
lfemur -22.8948 -3.90904 -11.6879
ltibia 24.4454
lfoot -9.15915 14.9647
ltoes -8.18169
4028
root 2.11059 17.7253 -8.34333 5.15141 -24.4888 0.106583
lowerback 3.15341 3.33158 2.02625
upperback 1.35051 4.50101 2.40647
thorax -0.415563 2.24504 1.17851
lowerneck -23.9643 -2.98942 -5.28881
upperneck 25.6122 -5.69385 10.9379
head 13.0967 -1.54464 4.13165
rclavicle 3.81667e-014 2.38542e-014
rhumerus -8.44373 17.5432 -77.096
rradius 112.025
rwrist -48.2698
rhand 27.4192 15.5592
rfingers 7.12502
rthumb 51.3724 -4.91194
lclavicle 3.81667e-014 2.38542e-014
lhumerus -23.6284 -11.1849 84.6303
lradius 114.272
lwrist 51.8145
lhand 19.5103 20.4942
lfingers 7.12502
lthumb 44.0786 -1035.65
rfemur -12.0818 -7.75673 24.3927
rtibia 32.4033
rfoot -25.8182 -8.66081
rtoes 9.88076
lfemur -22.7057 -4.12927 -11.6474
ltibia 24.3821
lfoot -9.4887 14.4649
ltoes -8.91337
4029
root 2.10018 17.7264 -8.35107 4.96844 -24.8253 0.215582
lowerback 3.59793 3.37507 1.8719
upperback 1.02474 4.58249 2.51006
thorax -1.01923 2.28192 1.32479
lowerneck -23.7875 -3.01817 -5.41841
upperneck 25.8267 -5.72444 10.9629
head 13.1561 -1.57023 4.1667
rclavicle -3.89618e-014 -1.90833e-014
rhumerus -10.0945 18.0911 -77.425
rradius 109.931
rwrist -46.5081
rhand 24.1921 14.416
rfingers 7.12502
rthumb 48.4184 -7.59925
lclavicle -3.89618e-014 -1.90833e-014
lhumerus -24.9245 -10.8845 84.9216
lradius 112.193
lwrist 51.6304
lhand 18.2111 20.862
lfingers 7.12502
lthumb 42.8651 -1034.84
rfemur -11.9891 -7.60091 24.2612
rtibia 32.511
rfoot -25.7939 -8.41334
rtoes 10.1479
lfemur -22.4737 -4.35965 -11.5853
ltibia 24.3204
lfoot -9.83566 13.7831
ltoes -8.39292
4030
root 2.08843 17.7313 -8.36116 4.85937 -25.1555 0.340082
lowerback 3.7081 3.43831 1.78391
upperback 0.856437 4.67383 2.52901
thorax -1.26318 2.3265 1.37479
lowerneck -23.6312 -3.05174 -5.44306
upperneck 25.8352 -5.78873 11.0157
head 13.1376 -1.59871 4.17975
rclavicle 4.73108e-014 3.18055e-015
rhumerus -11.4256 18.6532 -77.511
rradius 107.754
rwrist -44.9711
rhand 20.635 13.0243
rfingers 7.12502
rthumb 45.1261 -10.4254
lclavicle 4.73108e-014 3.18055e-015
lhumerus -25.632 -10.6228 84.8947
lradius 109.945
lwrist 51.597
lhand 16.6686 21.2551
lfingers 7.12502
lthumb 41.4199 -1033.96
rfemur -11.9891 -7.31929 24.1434
rtibia 32.615
rfoot -25.6587 -8.30361
rtoes 10.2089
lfemur -22.3606 -4.69703 -11.4817
ltibia 24.2627
lfoot -10.1918 13.0256
ltoes -7.27232
4031
root 2.07531 17.7308 -8.37548 4.8312 -25.5117 0.430584
lowerback 3.61559 3.542 1.75807
upperback 0.792577 4.81021 2.5238
thorax -1.28049 2.39471 1.38097
lowerneck -23.621 -3.09153 -5.37223
upperneck 25.759 -5.85187 10.9694
head 13.1071 -1.62688 4.13372
rclavicle -4.13472e-014 2.06736e-014
rhumerus -12.4699 19.2881 -77.4492
rradius 105.554
rwrist -43.6726
rhand 16.2252 10.7913
rfingers 7.12502
rthumb 41.0036 -14.1239
lclavicle -4.13472e-014 2.06736e-014
lhumerus -25.8628 -10.3642 84.6909
lradius 107.576
lwrist 51.9179
lhand 15.044 21.7886
lfingers 7.12502
lthumb 39.8931 -1032.95
rfemur -12.1015 -6.84904 24.0973
rtibia 32.7616
rfoot -25.6838 -8.22765
rtoes 10.6568
lfemur -22.3134 -5.07525 -11.3323
ltibia 24.1791
lfoot -10.3538 12.2855
ltoes -7.3325
4032
root 2.06336 17.7199 -8.38707 4.78723 -26.0107 0.330398
lowerback 3.52036 3.66888 1.91072
upperback 0.818655 4.98072 2.58948
thorax -1.19556 2.4796 1.36382
lowerneck -23.8077 -3.1307 -5.40636
upperneck 25.7777 -5.88147 10.9398
head 13.1559 -1.64141 4.12403
rclavicle -6.20208e-014 -2.38542e-014
rhumerus -13.3103 19.9442 -77.5092
rradius 103.286
rwrist -42.329
rhand 11.2366 8.20385
rfingers 7.12502
rthumb 36.2983 -18.0388
lclavicle -6.20208e-014 -2.38542e-014
lhumerus -25.7385 -10.011 84.3569
lradius 105.067
lwrist 52.6474
lhand 13.5295 22.6242
lfingers 7.12502
lthumb 38.4658 -1031.7
rfemur -12.1364 -6.4137 24.1952
rtibia 32.9572
rfoot -25.6798 -8.07289
rtoes 10.8737
lfemur -22.057 -5.31114 -11.0694
ltibia 24.0656
lfoot -10.5069 11.3488
ltoes -8.91193
4033
root 2.05446 17.7046 -8.39525 4.69004 -26.3875 0.307885
lowerback 3.41372 3.71687 2.06719
upperback 0.839862 5.04543 2.64713
thorax -1.10667 2.51179 1.34218
lowerneck -23.8907 -3.13241 -5.45644
upperneck 25.7191 -5.83742 10.8854
head 13.1429 -1.6331 4.11693
rclavicle -2.00773e-014 -1.43125e-014
rhumerus -14.0801 20.6066 -77.6883
rradius 100.921
rwrist -40.7312
rhand 6.84382 6.17834
rfingers 7.12502
rthumb 32.127 -21.002
lclavicle -2.00773e-014 -1.43125e-014
lhumerus -25.4828 -9.50608 83.9363
lradius 102.412
lwrist 53.5171
lhand 12.2827 23.2073
lfingers 7.12502
lthumb 37.2881 -1030.8
rfemur -12.146 -6.2502 24.2007
rtibia 33.1736
rfoot -25.5217 -7.892
rtoes 10.4449
lfemur -21.7506 -5.36282 -10.9724
ltibia 23.9302
lfoot -10.6532 9.91716
ltoes -10.6904
4034
root 2.04689 17.6968 -8.40151 4.58367 -26.6563 0.439334
lowerback 3.26398 3.7435 2.15066
upperback 0.79919 5.07929 2.64627
thorax -1.05783 2.52873 1.30298
lowerneck -23.8781 -3.13839 -5.42631
upperneck 25.6895 -5.81229 10.7507
head 13.1182 -1.63804 4.06076
rclavicle -3.02153e-014 1.74931e-014
rhumerus -14.8699 21.1532 -77.9347
rradius 98.3991
rwrist -38.9817
rhand 3.14394 4.54024
rfingers 7.12502
rthumb 28.5981 -23.2919
lclavicle -3.02153e-014 1.74931e-014
lhumerus -25.189 -9.01492 83.4268
lradius 99.7137
lwrist 54.5147
lhand 11.0994 23.7653
lfingers 7.12502
lthumb 36.1683 -1029.96
rfemur -12.2027 -6.16435 24.0584
rtibia 33.3801
rfoot -25.3912 -7.59267
rtoes 10.4549
lfemur -21.5577 -5.50239 -11.0232
ltibia 23.7936
lfoot -10.6541 8.61505
ltoes -11.7087
